  0
SECTION
  2
HEADER
  9
$ANGBASE
  50
0.0
  9
$ANGDIR
  70
  1
  9
$MEASUREMENT
  70
0
  0
ENDSEC
  0
SECTION
  2
TABLES
  0
TABLE
  2
LTYPE
  70
4
  0
LTYPE
  5
40F
  2
CONTINUOUS
  70
0
  3
Solid line
  72
65
  73
0
  40
0.0
  0
LTYPE
  5
410
  2
DASHDOT
 70
0
  3
Dash Dot ____ _ ____ _
 72
65
 73
4
 40
2.0
 49
1.25
 49
-0.25
 49
0.25
 49
-0.25
  0
LTYPE
  5
411
  2
DASHED
 70
0
  3
Dashed __ __ __ __ __
 72
65
 73
2
 40
0.75
 49
0.5
 49
-0.25
  0
LTYPE
  5
43B
  2
DOTTED
 70
0
  3
Dotted .  .  .  .
 72
65
 73
2
 40
0.2
 49
0.0
 49
-0.2
  0
ENDTAB
  0
TABLE
  2
STYLE
  70
4
  0
STYLE
  2
KICAD
  70
0
  40
0
  41
1
  42
1
  50
0
  71
0
  3
isocp.shx
  0
STYLE
  2
KICADB
  70
0
  40
0
  41
1
  42
1
  50
0
  71
0
  3
isocp.shx
  0
STYLE
  2
KICADI
  70
0
  40
0
  41
1
  42
1
  50
15
  71
0
  3
isocp.shx
  0
STYLE
  2
KICADBI
  70
0
  40
0
  41
1
  42
1
  50
15
  71
0
  3
isocp.shx
  0
ENDTAB
  0
TABLE
  2
LAYER
  70
30
  0
LAYER
  2
BLACK
  70
0
  62
7
  6
CONTINUOUS
  0
LAYER
  2
GRAY1
  70
0
  62
251
  6
CONTINUOUS
  0
LAYER
  2
GRAY2
  70
0
  62
8
  6
CONTINUOUS
  0
LAYER
  2
GRAY3
  70
0
  62
9
  6
CONTINUOUS
  0
LAYER
  2
WHITE
  70
0
  62
7
  6
CONTINUOUS
  0
LAYER
  2
LYELLOW
  70
0
  62
51
  6
CONTINUOUS
  0
LAYER
  2
BLUE1
  70
0
  62
178
  6
CONTINUOUS
  0
LAYER
  2
GREEN1
  70
0
  62
98
  6
CONTINUOUS
  0
LAYER
  2
CYAN1
  70
0
  62
138
  6
CONTINUOUS
  0
LAYER
  2
RED1
  70
0
  62
18
  6
CONTINUOUS
  0
LAYER
  2
MAGENTA1
  70
0
  62
228
  6
CONTINUOUS
  0
LAYER
  2
BROWN1
  70
0
  62
58
  6
CONTINUOUS
  0
LAYER
  2
BLUE2
  70
0
  62
5
  6
CONTINUOUS
  0
LAYER
  2
GREEN2
  70
0
  62
3
  6
CONTINUOUS
  0
LAYER
  2
CYAN2
  70
0
  62
4
  6
CONTINUOUS
  0
LAYER
  2
RED2
  70
0
  62
1
  6
CONTINUOUS
  0
LAYER
  2
MAGENTA2
  70
0
  62
6
  6
CONTINUOUS
  0
LAYER
  2
BROWN2
  70
0
  62
54
  6
CONTINUOUS
  0
LAYER
  2
BLUE3
  70
0
  62
171
  6
CONTINUOUS
  0
LAYER
  2
GREEN3
  70
0
  62
91
  6
CONTINUOUS
  0
LAYER
  2
CYAN3
  70
0
  62
131
  6
CONTINUOUS
  0
LAYER
  2
RED3
  70
0
  62
11
  6
CONTINUOUS
  0
LAYER
  2
MAGENTA3
  70
0
  62
221
  6
CONTINUOUS
  0
LAYER
  2
YELLOW3
  70
0
  62
2
  6
CONTINUOUS
  0
LAYER
  2
BLUE4
  70
0
  62
5
  6
CONTINUOUS
  0
LAYER
  2
GREEN4
  70
0
  62
3
  6
CONTINUOUS
  0
LAYER
  2
CYAN4
  70
0
  62
4
  6
CONTINUOUS
  0
LAYER
  2
RED4
  70
0
  62
1
  6
CONTINUOUS
  0
LAYER
  2
MAGENTA4
  70
0
  62
6
  6
CONTINUOUS
  0
LAYER
  2
YELLOW4
  70
0
  62
2
  6
CONTINUOUS
  0
ENDTAB
  0
ENDSEC
  0
SECTION
  2
ENTITIES
0
LINE
8
BLACK
6
CONTINUOUS
10
207.016
20
-58.3565
11
207.021
21
-58.3565
0
LINE
8
BLACK
6
CONTINUOUS
10
207.021
20
-58.3565
11
207.026
21
-58.3584
0
LINE
8
BLACK
6
CONTINUOUS
10
207.026
20
-58.3584
11
207.032
21
-58.3594
0
LINE
8
BLACK
6
CONTINUOUS
10
207.032
20
-58.3594
11
207.037
21
-58.3622
0
LINE
8
BLACK
6
CONTINUOUS
10
207.037
20
-58.3622
11
207.042
21
-58.3642
0
LINE
8
BLACK
6
CONTINUOUS
10
207.042
20
-58.3642
11
207.047
21
-58.3678
0
LINE
8
BLACK
6
CONTINUOUS
10
207.047
20
-58.3678
11
207.051
21
-58.3706
0
LINE
8
BLACK
6
CONTINUOUS
10
207.051
20
-58.3706
11
207.055
21
-58.3749
0
LINE
8
BLACK
6
CONTINUOUS
10
207.055
20
-58.3749
11
207.059
21
-58.3786
0
LINE
8
BLACK
6
CONTINUOUS
10
207.059
20
-58.3786
11
207.062
21
-58.3834
0
LINE
8
BLACK
6
CONTINUOUS
10
207.062
20
-58.3834
11
207.066
21
-58.3878
0
LINE
8
BLACK
6
CONTINUOUS
10
207.066
20
-58.3878
11
207.068
21
-58.3931
0
LINE
8
BLACK
6
CONTINUOUS
10
207.068
20
-58.3931
11
207.071
21
-58.3979
0
LINE
8
BLACK
6
CONTINUOUS
10
207.071
20
-58.3979
11
207.072
21
-58.4035
0
LINE
8
BLACK
6
CONTINUOUS
10
207.072
20
-58.4035
11
207.073
21
-58.4088
0
LINE
8
BLACK
6
CONTINUOUS
10
207.073
20
-58.4088
11
207.073
21
-58.4144
0
LINE
8
BLACK
6
CONTINUOUS
10
207.073
20
-58.4144
11
207.073
21
-58.4144
0
LINE
8
BLACK
6
CONTINUOUS
10
207.073
20
-58.4144
11
207.073
21
-109.226
0
LINE
8
BLACK
6
CONTINUOUS
10
207.073
20
-109.226
11
207.073
21
-109.228
0
LINE
8
BLACK
6
CONTINUOUS
10
207.073
20
-109.228
11
206.995
21
-110.218
0
LINE
8
BLACK
6
CONTINUOUS
10
206.995
20
-110.218
11
206.994
21
-110.228
0
LINE
8
BLACK
6
CONTINUOUS
10
206.994
20
-110.228
11
206.761
21
-111.197
0
LINE
8
BLACK
6
CONTINUOUS
10
206.761
20
-111.197
11
206.758
21
-111.207
0
LINE
8
BLACK
6
CONTINUOUS
10
206.758
20
-111.207
11
206.377
21
-112.127
0
LINE
8
BLACK
6
CONTINUOUS
10
206.377
20
-112.127
11
206.377
21
-112.127
0
LINE
8
BLACK
6
CONTINUOUS
10
206.377
20
-112.127
11
206.372
21
-112.136
0
LINE
8
BLACK
6
CONTINUOUS
10
206.372
20
-112.136
11
205.851
21
-112.986
0
LINE
8
BLACK
6
CONTINUOUS
10
205.851
20
-112.986
11
205.849
21
-112.989
0
LINE
8
BLACK
6
CONTINUOUS
10
205.849
20
-112.989
11
205.846
21
-112.994
0
LINE
8
BLACK
6
CONTINUOUS
10
205.846
20
-112.994
11
205.198
21
-113.751
0
LINE
8
BLACK
6
CONTINUOUS
10
205.198
20
-113.751
11
205.191
21
-113.758
0
LINE
8
BLACK
6
CONTINUOUS
10
205.191
20
-113.758
11
204.434
21
-114.406
0
LINE
8
BLACK
6
CONTINUOUS
10
204.434
20
-114.406
11
204.426
21
-114.411
0
LINE
8
BLACK
6
CONTINUOUS
10
204.426
20
-114.411
11
204.426
21
-114.411
0
LINE
8
BLACK
6
CONTINUOUS
10
204.426
20
-114.411
11
203.576
21
-114.932
0
LINE
8
BLACK
6
CONTINUOUS
10
203.576
20
-114.932
11
203.567
21
-114.937
0
LINE
8
BLACK
6
CONTINUOUS
10
203.567
20
-114.937
11
202.647
21
-115.318
0
LINE
8
BLACK
6
CONTINUOUS
10
202.647
20
-115.318
11
202.637
21
-115.321
0
LINE
8
BLACK
6
CONTINUOUS
10
202.637
20
-115.321
11
201.668
21
-115.554
0
LINE
8
BLACK
6
CONTINUOUS
10
201.668
20
-115.554
11
201.668
21
-115.554
0
LINE
8
BLACK
6
CONTINUOUS
10
201.668
20
-115.554
11
201.658
21
-115.555
0
LINE
8
BLACK
6
CONTINUOUS
10
201.658
20
-115.555
11
200.668
21
-115.633
0
LINE
8
BLACK
6
CONTINUOUS
10
200.668
20
-115.633
11
200.666
21
-115.633
0
LINE
8
BLACK
6
CONTINUOUS
10
200.666
20
-115.633
11
105.404
21
-115.633
0
LINE
8
BLACK
6
CONTINUOUS
10
105.404
20
-115.633
11
105.404
21
-115.633
0
LINE
8
BLACK
6
CONTINUOUS
10
105.404
20
-115.633
11
105.399
21
-115.633
0
LINE
8
BLACK
6
CONTINUOUS
10
105.399
20
-115.633
11
105.394
21
-115.632
0
LINE
8
BLACK
6
CONTINUOUS
10
105.394
20
-115.632
11
105.388
21
-115.631
0
LINE
8
BLACK
6
CONTINUOUS
10
105.388
20
-115.631
11
105.383
21
-115.628
0
LINE
8
BLACK
6
CONTINUOUS
10
105.383
20
-115.628
11
105.378
21
-115.626
0
LINE
8
BLACK
6
CONTINUOUS
10
105.378
20
-115.626
11
105.373
21
-115.622
0
LINE
8
BLACK
6
CONTINUOUS
10
105.373
20
-115.622
11
105.369
21
-115.619
0
LINE
8
BLACK
6
CONTINUOUS
10
105.369
20
-115.619
11
105.365
21
-115.615
0
LINE
8
BLACK
6
CONTINUOUS
10
105.365
20
-115.615
11
105.361
21
-115.611
0
LINE
8
BLACK
6
CONTINUOUS
10
105.361
20
-115.611
11
105.358
21
-115.607
0
LINE
8
BLACK
6
CONTINUOUS
10
105.358
20
-115.607
11
105.354
21
-115.602
0
LINE
8
BLACK
6
CONTINUOUS
10
105.354
20
-115.602
11
105.352
21
-115.597
0
LINE
8
BLACK
6
CONTINUOUS
10
105.352
20
-115.597
11
105.349
21
-115.592
0
LINE
8
BLACK
6
CONTINUOUS
10
105.349
20
-115.592
11
105.348
21
-115.587
0
LINE
8
BLACK
6
CONTINUOUS
10
105.348
20
-115.587
11
105.347
21
-115.581
0
LINE
8
BLACK
6
CONTINUOUS
10
105.347
20
-115.581
11
105.347
21
-115.559
0
LINE
8
BLACK
6
CONTINUOUS
10
105.347
20
-115.559
11
105.346
21
-58.4144
0
LINE
8
BLACK
6
CONTINUOUS
10
105.346
20
-58.4144
11
105.347
21
-58.4144
0
LINE
8
BLACK
6
CONTINUOUS
10
105.347
20
-58.4144
11
105.347
21
-58.4088
0
LINE
8
BLACK
6
CONTINUOUS
10
105.347
20
-58.4088
11
105.348
21
-58.4035
0
LINE
8
BLACK
6
CONTINUOUS
10
105.348
20
-58.4035
11
105.349
21
-58.3979
0
LINE
8
BLACK
6
CONTINUOUS
10
105.349
20
-58.3979
11
105.352
21
-58.3931
0
LINE
8
BLACK
6
CONTINUOUS
10
105.352
20
-58.3931
11
105.354
21
-58.3878
0
LINE
8
BLACK
6
CONTINUOUS
10
105.354
20
-58.3878
11
105.358
21
-58.3834
0
LINE
8
BLACK
6
CONTINUOUS
10
105.358
20
-58.3834
11
105.361
21
-58.3786
0
LINE
8
BLACK
6
CONTINUOUS
10
105.361
20
-58.3786
11
105.365
21
-58.3749
0
LINE
8
BLACK
6
CONTINUOUS
10
105.365
20
-58.3749
11
105.369
21
-58.3706
0
LINE
8
BLACK
6
CONTINUOUS
10
105.369
20
-58.3706
11
105.373
21
-58.3678
0
LINE
8
BLACK
6
CONTINUOUS
10
105.373
20
-58.3678
11
105.378
21
-58.3642
0
LINE
8
BLACK
6
CONTINUOUS
10
105.378
20
-58.3642
11
105.383
21
-58.3622
0
LINE
8
BLACK
6
CONTINUOUS
10
105.383
20
-58.3622
11
105.388
21
-58.3594
0
LINE
8
BLACK
6
CONTINUOUS
10
105.388
20
-58.3594
11
105.394
21
-58.3584
0
LINE
8
BLACK
6
CONTINUOUS
10
105.394
20
-58.3584
11
105.399
21
-58.3565
0
LINE
8
BLACK
6
CONTINUOUS
10
105.399
20
-58.3565
11
105.404
21
-58.3565
0
LINE
8
BLACK
6
CONTINUOUS
10
105.404
20
-58.3565
11
105.404
21
-58.3565
0
LINE
8
BLACK
6
CONTINUOUS
10
105.404
20
-58.3565
11
207.016
21
-58.3565
0
LINE
8
BLACK
6
CONTINUOUS
10
207.016
20
-58.3565
11
207.016
21
-58.3565
0
LINE
8
BLACK
6
CONTINUOUS
10
105.474
20
-58.4835
11
105.474
21
-115.506
0
LINE
8
BLACK
6
CONTINUOUS
10
105.474
20
-115.506
11
200.658
21
-115.506
0
LINE
8
BLACK
6
CONTINUOUS
10
200.658
20
-115.506
11
201.643
21
-115.429
0
LINE
8
BLACK
6
CONTINUOUS
10
201.643
20
-115.429
11
202.603
21
-115.199
0
LINE
8
BLACK
6
CONTINUOUS
10
202.603
20
-115.199
11
203.514
21
-114.821
0
LINE
8
BLACK
6
CONTINUOUS
10
203.514
20
-114.821
11
204.355
21
-114.306
0
LINE
8
BLACK
6
CONTINUOUS
10
204.355
20
-114.306
11
205.105
21
-113.665
0
LINE
8
BLACK
6
CONTINUOUS
10
205.105
20
-113.665
11
205.746
21
-112.915
0
LINE
8
BLACK
6
CONTINUOUS
10
205.746
20
-112.915
11
206.261
21
-112.074
0
LINE
8
BLACK
6
CONTINUOUS
10
206.261
20
-112.074
11
206.639
21
-111.163
0
LINE
8
BLACK
6
CONTINUOUS
10
206.639
20
-111.163
11
206.869
21
-110.203
0
LINE
8
BLACK
6
CONTINUOUS
10
206.869
20
-110.203
11
206.947
21
-109.217
0
LINE
8
BLACK
6
CONTINUOUS
10
206.947
20
-109.217
11
206.946
21
-58.4835
0
LINE
8
BLACK
6
CONTINUOUS
10
206.946
20
-58.4835
11
105.474
21
-58.4835
  0
ENDSEC
  0
EOF
